<svg width="129" height="128" viewBox="0 0 129 128" fill="none" xmlns="http://www.w3.org/2000/svg">
<g clip-path="url(#clip0_18_511)">
<path d="M67.0082 27.787C68.1327 28.3998 68.7918 29.6157 68.6924 30.9072L68.6923 30.9078L66.1892 63.3957L85.9024 89.3401C86.702 90.3926 86.7954 91.8068 86.1406 92.9432C85.5082 94.0407 84.2908 94.6489 83.0392 94.4926L4.43682 84.6767C3.17243 84.5187 2.12042 83.6145 1.75493 82.3731C1.38959 81.1318 1.78419 79.8017 2.7604 78.9844L63.4934 28.1297C64.4607 27.32 65.8133 27.1712 66.9396 27.7506C66.9625 27.7625 66.9856 27.7747 67.0082 27.787ZM78.608 88.5612L61.4673 66.0025C60.98 65.3603 60.7462 64.5658 60.8082 63.764L62.9847 35.5162L9.88509 79.9789L78.608 88.5612Z" fill="white"/>
<path d="M64.8071 61.8354C65.4068 62.1622 65.8817 62.7178 66.0899 63.4245C66.5063 64.8383 65.6978 66.3218 64.2841 66.738L41.7932 73.3623C40.3796 73.7788 38.8959 72.9702 38.4797 71.5566C38.0633 70.1428 38.8717 68.6595 40.2854 68.2431L62.7764 61.6188C63.4831 61.4107 64.2075 61.5086 64.8071 61.8354Z" fill="white"/>
<path d="M107.419 49.2845C108.019 49.6113 108.494 50.1669 108.702 50.8737C109.119 52.2872 108.31 53.7709 106.897 54.1871L80.9569 61.8271C79.5435 62.2435 78.0598 61.4349 77.6435 60.0214C77.227 58.6078 78.0355 57.1242 79.4492 56.7079L105.389 49.0679C106.095 48.8598 106.82 48.9578 107.419 49.2845Z" fill="white"/>
<path d="M102.638 31.1132C103.237 31.44 103.712 31.9956 103.92 32.7023C104.337 34.1159 103.528 35.5996 102.115 36.0158L85.4043 40.9375C83.9908 41.3539 82.5071 40.5453 82.0908 39.1318C81.6743 37.7182 82.4828 36.2346 83.8965 35.8183L100.607 30.8966C101.314 30.6884 102.038 30.7864 102.638 31.1132Z" fill="white"/>
<path d="M113.259 67.1736C113.858 67.5004 114.333 68.0558 114.542 68.7627C114.958 70.1763 114.15 71.66 112.736 72.0762L96.0254 76.998C94.6117 77.4144 93.1283 76.606 92.7119 75.1922C92.2955 73.7787 93.104 72.295 94.5177 71.8788L111.228 66.957C111.935 66.7489 112.659 66.8469 113.259 67.1736Z" fill="white"/>
</g>
<defs>
<clipPath id="clip0_18_511">
<rect width="94.2197" height="94.2197" fill="white" transform="translate(83.2573 127.818) rotate(-151.411)"/>
</clipPath>
</defs>
</svg>
