<svg width="57" height="57" viewBox="0 0 57 57" fill="none" xmlns="http://www.w3.org/2000/svg">
<path d="M16.3483 50.9093L2.24058 8.82667C1.95143 7.90723 1.92234 6.92669 2.15648 5.99198C2.39062 5.05726 2.879 4.20424 3.56838 3.52593C4.25775 2.84761 5.12166 2.37003 6.06591 2.14526C7.01016 1.92049 7.9985 1.95715 8.92318 2.25125L51.3524 16.2437C52.4135 16.5897 53.3374 17.259 53.9924 18.1563C54.6474 19.0537 55 20.1332 55 21.2411C55 22.3489 54.6474 23.4284 53.9924 24.3258C53.3374 25.2231 52.4135 25.8925 51.3524 26.2384L35.4414 31.4987C34.6486 31.7556 33.9281 32.1944 33.3383 32.7793C32.7485 33.3643 32.3061 34.079 32.0471 34.8653L26.7435 50.6463C26.5323 51.843 25.9101 52.9303 24.9825 53.7236C24.0548 54.5169 22.8789 54.9673 21.6544 54.9983C20.43 55.0293 19.2324 54.6389 18.2652 53.8936C17.298 53.1482 16.6207 52.0938 16.3483 50.9093Z" fill="#FBAB1A" stroke="white" stroke-width="4" stroke-miterlimit="10"/>
</svg>
