<svg width="152" height="151" viewBox="0 0 152 151" fill="none" xmlns="http://www.w3.org/2000/svg">
<g clip-path="url(#clip0_18_734)">
<path d="M89.1329 38.2058C88.5432 36.5995 87.1944 35.4164 85.5253 35.041C83.8557 34.6656 82.1305 35.1574 80.9097 36.3562C80.8743 36.3911 80.84 36.4267 80.8067 36.4636L66.7576 52.0049L50.0388 58.143C47.9883 58.8959 46.729 60.8561 46.7577 62.9259L41.7797 64.7534C40.5222 65.215 39.5197 66.139 38.9568 67.3548C38.3941 68.5706 38.3383 69.9327 38.8002 71.1902L40.5289 75.8989C41.3901 78.2449 43.8308 79.5621 46.2089 79.0911C46.4626 79.0409 51.9418 77.0516 51.9418 77.0516C53.2775 78.7415 55.8716 79.3843 57.9505 78.4238L60.1562 84.4316C60.8488 86.3181 62.2346 87.8218 64.0581 88.666C65.5175 89.3417 67.1173 89.53 68.6649 89.2235C69.0513 89.147 69.4345 89.0397 69.8115 88.9012C71.698 88.2086 73.2019 86.8228 74.0461 84.9993C74.8903 83.1756 74.9737 81.1324 74.2811 79.2459L72.0754 73.2381L74.2962 72.4226C74.2962 72.4226 94.9 74.528 94.9243 74.5298C95.382 74.5631 95.8343 74.5343 96.2714 74.4477C97.4636 74.2116 98.5408 73.5461 99.2944 72.5461C100.324 71.1796 100.587 69.4048 99.9971 67.7988L89.1329 38.2058ZM69.4945 82.8923C69.213 83.5002 68.7118 83.9621 68.0829 84.193C67.4549 84.4235 66.7733 84.396 66.1652 84.1146C65.5572 83.8331 65.0954 83.3319 64.8645 82.7032L62.659 76.6953L67.3674 74.9667L69.5732 80.9745C69.8036 81.6035 69.776 82.2844 69.4945 82.8923ZM45.2371 74.1705L43.5084 69.4618L48.2169 67.7331L49.9455 72.4416L45.2371 74.1705ZM55.8116 73.8662L51.7675 62.8514L66.7132 57.3644L70.757 68.3792L55.8116 73.8662ZM75.7896 67.5335L71.0794 54.7038L84.4263 39.939L95.2889 69.5261L75.7896 67.5335Z" fill="white"/>
<path d="M102.881 52.04L105.215 51.0613C106.493 50.5256 107.094 49.0559 106.559 47.7788C106.023 46.5017 104.554 45.9008 103.276 46.4356L100.942 47.4144C99.6645 47.9501 99.0633 49.4198 99.5987 50.6969C100.068 51.8148 101.252 52.4148 102.396 52.1881C102.559 52.1561 102.722 52.1068 102.881 52.04Z" fill="white"/>
<path d="M100.291 43.2527L101.823 41.2379C102.662 40.1355 102.448 38.5622 101.345 37.7237C100.243 36.8855 98.6693 37.0994 97.8309 38.2021L96.2986 40.2169C95.4604 41.3194 95.6745 42.8926 96.777 43.7311C97.3718 44.1833 98.1034 44.3293 98.783 44.1947C99.3635 44.0797 99.9054 43.7604 100.291 43.2527Z" fill="white"/>
<path d="M107.465 56.8743L104.954 56.5548C103.58 56.3802 102.325 57.352 102.15 58.7262C101.975 60.1003 102.947 61.3558 104.321 61.5305L106.832 61.8499C107.108 61.8849 107.378 61.8739 107.636 61.8228C108.666 61.6189 109.497 60.7771 109.636 59.6786C109.811 58.3046 108.839 57.0492 107.465 56.8743Z" fill="white"/>
<path d="M88.3058 137.631C89.6618 137.363 90.5433 136.046 90.2747 134.69C90.0062 133.334 88.6892 132.452 87.3332 132.721C85.9772 132.989 85.0957 134.306 85.3642 135.662C85.6328 137.018 86.9498 137.9 88.3058 137.631Z" fill="white"/>
<path d="M137.295 55.3534C137.263 54.5167 136.816 53.7146 136.035 53.2689L116.189 41.9382L112.497 23.2945C111.959 20.5817 109.315 18.8117 106.602 19.349L84.3401 23.7583C84.3168 23.744 84.2955 23.7281 84.2717 23.7145L67.1571 13.9423C65.004 12.7128 62.2325 13.2617 60.7106 15.2191L48.5605 30.8451L26.3046 35.2532C23.5918 35.7905 21.8217 38.435 22.359 41.1478L26.0517 59.7915L12.0234 77.8315C11.4714 78.5412 11.3635 79.4533 11.6529 80.239C11.6579 80.3689 24.5076 145.314 24.5076 145.314C25.0449 148.027 27.6893 149.797 30.4021 149.259L77.3089 139.969C78.6677 139.7 79.5509 138.38 79.2818 137.021C79.0127 135.663 77.6931 134.779 76.3344 135.048L34.0771 143.418L66.3768 102.246L79.5664 107.408C80.4732 107.763 81.4463 107.837 82.3687 107.655C83.2909 107.472 84.1624 107.032 84.8654 106.359L95.5577 96.1117L141.617 122.118L98.3892 130.68C97.0304 130.949 96.1472 132.269 96.4163 133.628C96.6854 134.987 98.005 135.87 99.3637 135.601L146.27 126.31C148.983 125.773 150.753 123.128 150.216 120.415C150.216 120.415 137.34 55.4755 137.295 55.3534ZM130.364 55.8069L120.759 65.0119L117.479 48.4503L130.364 55.8069ZM64.6701 18.2979L76.8361 25.2446L56.0703 29.3576L64.6701 18.2979ZM27.3416 66.3035L30.6219 82.8651L18.2333 78.0163L27.3416 66.3035ZM28.9342 141.848L17.2846 83.0313L61.4995 100.337L28.9342 141.848ZM81.3948 102.738L66.5815 96.9396C66.507 96.9064 66.4318 96.8769 66.3555 96.8512L36.1646 85.0346L27.2791 40.1733L107.577 24.269L116.462 69.1303L81.3948 102.738ZM144.637 118.063L99.3394 92.487L133.153 60.0814L144.637 118.064L144.637 118.063Z" fill="white"/>
</g>
<defs>
<clipPath id="clip0_18_734">
<rect width="128.151" height="128.151" fill="white" transform="translate(0.712891 25.1802) rotate(-11.2034)"/>
</clipPath>
</defs>
</svg>
