<svg width="297" height="297" viewBox="0 0 297 297" fill="none" xmlns="http://www.w3.org/2000/svg">
<g clip-path="url(#clip0_29_823)">
<path d="M86.2481 3.71387C86.2481 2.05702 84.905 0.713867 83.2481 0.713867H80.5469C78.8901 0.713867 77.5469 2.05701 77.5469 3.71387V40.9795C77.5469 42.6364 76.2038 43.9795 74.5469 43.9795H70.3321C68.6753 43.9795 67.3321 42.6364 67.3321 40.9795V20.8262C67.3321 19.1693 65.989 17.8262 64.3321 17.8262H61.6309C59.9741 17.8262 58.6309 19.1693 58.6309 20.8262V40.9795C58.6309 42.6364 57.2878 43.9795 55.6309 43.9795H49.6147C47.9579 43.9795 46.6147 45.3227 46.6147 46.9795V285.299C46.6147 286.956 45.2716 288.299 43.6147 288.299H29.1035C27.4467 288.299 26.1035 289.642 26.1035 291.299V294C26.1035 295.657 27.4467 297 29.1035 297H145.792C147.449 297 148.792 295.657 148.792 294V46.9795C148.792 45.3227 147.449 43.9795 145.792 43.9795H89.2481C87.5912 43.9795 86.2481 42.6364 86.2481 40.9795V3.71387ZM140.091 285.299C140.091 286.956 138.748 288.299 137.091 288.299H58.3159C56.659 288.299 55.3159 286.956 55.3159 285.299V55.6807C55.3159 54.0239 56.659 52.6807 58.3159 52.6807H137.091C138.748 52.6807 140.091 54.0239 140.091 55.6807V285.299Z" fill="#FBAB1A"/>
<path d="M195.477 140.884C193.82 140.884 192.477 142.227 192.477 143.884V276.992C192.477 278.649 193.82 279.992 195.477 279.992H213.543C215.2 279.992 216.543 278.649 216.543 276.992V143.884C216.543 142.227 215.2 140.884 213.543 140.884H195.477ZM207.842 268.291C207.842 269.948 206.499 271.291 204.842 271.291H204.178C202.521 271.291 201.178 269.948 201.178 268.291V152.585C201.178 150.929 202.521 149.585 204.178 149.585H204.842C206.499 149.585 207.842 150.929 207.842 152.585V268.291Z" fill="#FBAB1A"/>
<path d="M163.792 140.884C162.136 140.884 160.792 142.227 160.792 143.884V276.992C160.792 278.649 162.136 279.992 163.792 279.992H181.859C183.516 279.992 184.859 278.649 184.859 276.992V143.884C184.859 142.227 183.516 140.884 181.859 140.884H163.792ZM176.158 268.291C176.158 269.948 174.815 271.291 173.158 271.291H172.494C170.837 271.291 169.494 269.948 169.494 268.291V152.585C169.494 150.929 170.837 149.585 172.494 149.585H173.158C174.815 149.585 176.158 150.929 176.158 152.585V268.291Z" fill="#FBAB1A"/>
<path d="M132.292 79.2759C132.292 77.619 130.949 76.2759 129.292 76.2759H66.1152C64.4584 76.2759 63.1152 77.619 63.1152 79.2759V100.2C63.1152 101.857 64.4584 103.2 66.1152 103.2H129.292C130.949 103.2 132.292 101.857 132.292 100.2V79.2759ZM123.591 91.4985C123.591 93.1553 122.247 94.4985 120.591 94.4985H74.8164C73.1595 94.4985 71.8164 93.1553 71.8164 91.4985V87.9771C71.8164 86.3202 73.1596 84.9771 74.8164 84.9771H120.591C122.248 84.9771 123.591 86.3202 123.591 87.9771V91.4985Z" fill="#FBAB1A"/>
<path d="M132.292 116.868C132.292 115.211 130.949 113.868 129.292 113.868H66.1152C64.4584 113.868 63.1152 115.211 63.1152 116.868V137.794C63.1152 139.451 64.4584 140.794 66.1152 140.794H129.292C130.949 140.794 132.292 139.451 132.292 137.794V116.868ZM123.591 129.093C123.591 130.749 122.247 132.093 120.591 132.093H74.8164C73.1595 132.093 71.8164 130.749 71.8164 129.093V125.569C71.8164 123.912 73.1596 122.569 74.8164 122.569H120.591C122.248 122.569 123.591 123.912 123.591 125.569V129.093Z" fill="#FBAB1A"/>
<path d="M132.292 154.461C132.292 152.805 130.949 151.461 129.292 151.461H66.1152C64.4584 151.461 63.1152 152.805 63.1152 154.461V175.385C63.1152 177.042 64.4584 178.385 66.1152 178.385H129.292C130.949 178.385 132.292 177.042 132.292 175.385V154.461ZM123.591 166.684C123.591 168.341 122.247 169.684 120.591 169.684H74.8164C73.1595 169.684 71.8164 168.341 71.8164 166.684V163.163C71.8164 161.506 73.1596 160.163 74.8164 160.163H120.591C122.248 160.163 123.591 161.506 123.591 163.163V166.684Z" fill="#FBAB1A"/>
<path d="M132.292 194.053C132.292 191.292 130.053 189.053 127.292 189.053H68.1152C65.3538 189.053 63.1152 191.292 63.1152 194.053V210.977C63.1152 213.738 65.3538 215.977 68.1152 215.977H127.292C130.053 215.977 132.292 213.738 132.292 210.977V194.053ZM123.591 202.515C123.591 205.144 121.459 207.276 118.83 207.276H76.5771C73.9478 207.276 71.8164 205.144 71.8164 202.515C71.8164 199.886 73.9479 197.754 76.5771 197.754H118.83C121.459 197.754 123.591 199.886 123.591 202.515Z" fill="#FBAB1A"/>
<path d="M132.292 229.647C132.292 227.991 130.949 226.647 129.292 226.647H66.1152C64.4584 226.647 63.1152 227.991 63.1152 229.647V250.571C63.1152 252.228 64.4584 253.571 66.1152 253.571H129.292C130.949 253.571 132.292 252.228 132.292 250.571V229.647ZM123.591 241.87C123.591 243.527 122.247 244.87 120.591 244.87H74.8164C73.1595 244.87 71.8164 243.527 71.8164 241.87V238.349C71.8164 236.692 73.1596 235.349 74.8164 235.349H120.591C122.248 235.349 123.591 236.692 123.591 238.349V241.87Z" fill="#FBAB1A"/>
<path d="M237.245 130.425C237.245 129.274 236.586 128.224 235.548 127.723L181.69 101.745C179.83 100.848 179.412 98.3823 180.872 96.9217L197.793 80.0005C198.356 79.4379 199.119 79.1218 199.915 79.1218H229.38C231.037 79.1218 232.38 77.7786 232.38 76.1218V73.4206C232.38 71.7638 231.037 70.4206 229.38 70.4206H214.616C211.944 70.4206 210.605 67.189 212.495 65.2992L226.516 51.2797C227.079 50.7171 227.842 50.4011 228.638 50.4011H244.888C246.545 50.4011 247.888 49.058 247.888 47.4011V44.6999C247.888 43.0431 246.545 41.6999 244.888 41.6999H243.338C240.665 41.6999 239.327 38.4688 241.216 36.5788L247.704 30.0897C248.876 28.9181 248.876 27.0188 247.704 25.8473L245.795 23.9376C244.623 22.7661 242.724 22.766 241.552 23.9375L226.047 39.4411C224.157 41.3309 220.926 39.9923 220.926 37.3197V32.2283C220.926 30.5714 219.583 29.2283 217.926 29.2283H215.225C213.568 29.2283 212.225 30.5714 212.225 32.2283V52.0205C212.225 52.816 211.909 53.579 211.346 54.1416L198.432 67.0569C196.542 68.947 193.311 67.6085 193.311 64.9357V45.5225C193.311 43.8656 191.968 42.5225 190.311 42.5225H187.61C185.953 42.5225 184.61 43.8656 184.61 45.5225V79.6375C184.61 80.4332 184.294 81.1962 183.731 81.7588L171.088 94.4016C170.186 95.3036 168.812 95.5365 167.663 94.9823L160.635 91.5918C159.143 90.8719 157.349 91.4981 156.629 92.9904L155.457 95.4217C154.737 96.9141 155.363 98.7074 156.855 99.4272L226.847 133.187C227.884 133.687 228.544 134.737 228.544 135.889V285.299C228.544 286.956 227.201 288.299 225.544 288.299H159.043C157.386 288.299 156.043 289.642 156.043 291.299V294C156.043 295.657 157.386 297 159.043 297H254.758C256.415 297 257.758 295.657 257.758 294V291.299C257.758 289.642 256.415 288.299 254.758 288.299H240.245C238.588 288.299 237.245 286.956 237.245 285.299V130.425Z" fill="#FBAB1A"/>
<path d="M265.993 0.754555C262.832 1.17602 188.326 11.3115 169.322 30.3181C155.327 44.3111 150.769 64.8134 157.32 83.2888C157.874 84.8504 159.642 85.5661 161.169 84.9232L163.659 83.8751C165.186 83.2322 165.891 81.4752 165.356 79.9071C160.174 64.7157 163.994 47.9518 175.474 36.4701C187.705 24.2388 232.379 14.8748 257.427 10.826C259.423 10.5033 261.132 12.2118 260.809 14.208C256.761 39.2574 247.399 83.9301 235.165 96.1616C230.754 100.573 225.406 103.953 219.562 106.047C218.003 106.606 217.065 108.25 217.511 109.846L218.237 112.447C218.682 114.043 220.34 114.984 221.906 114.445C229.187 111.939 235.849 107.781 241.317 102.316C260.324 83.3092 270.459 8.80314 270.883 5.64217L271.116 3.89025C271.378 1.93042 269.705 0.25815 267.745 0.520235L265.993 0.754555Z" fill="#FBAB1A"/>
<path d="M132.097 64.4272C132.097 66.0841 130.754 67.4272 129.097 67.4272H115.81C114.153 67.4272 112.81 66.0841 112.81 64.4272V61.7261C112.81 60.0692 114.153 58.7261 115.81 58.7261H129.097C130.754 58.7261 132.097 60.0692 132.097 61.7261V64.4272ZM107.009 64.4272C107.009 66.0841 105.666 67.4272 104.009 67.4272H101.308C99.6508 67.4272 98.3076 66.0841 98.3076 64.4272V61.7261C98.3076 60.0692 99.6508 58.7261 101.308 58.7261H104.009C105.666 58.7261 107.009 60.0692 107.009 61.7261V64.4272ZM92.5068 64.4272C92.5068 66.0841 91.1637 67.4272 89.5068 67.4272H86.8057C85.1488 67.4272 83.8057 66.0841 83.8057 64.4272V61.7261C83.8057 60.0692 85.1488 58.7261 86.8057 58.7261H89.5068C91.1637 58.7261 92.5068 60.0692 92.5068 61.7261V64.4272Z" fill="#FBAB1A"/>
<path d="M210.689 101.779C209.051 102.019 207.622 100.753 207.516 99.0999L207.342 96.4042C207.235 94.7501 208.495 93.3396 210.129 93.0576C210.629 92.9712 211.126 92.8713 211.62 92.7579C213.235 92.3871 214.943 93.1977 215.487 94.7628L216.374 97.3146C216.918 98.8793 216.093 100.602 214.489 101.014C213.239 101.336 211.971 101.591 210.689 101.779ZM201.486 98.9536C201.3 100.6 199.81 101.797 198.184 101.477C196.081 101.063 194.026 100.466 192.034 99.69C190.49 99.0886 189.876 97.2795 190.603 95.7905L191.788 93.3638C192.515 91.8745 194.308 91.2742 195.868 91.8351C196.946 92.2228 198.047 92.5425 199.168 92.7931C200.785 93.1547 201.975 94.6235 201.789 96.27L201.486 98.9536ZM225.9 95.8384C224.531 96.7737 222.691 96.2597 221.872 94.8186L220.538 92.4703C219.72 91.0299 220.235 89.2111 221.578 88.2413C221.992 87.9424 222.398 87.6318 222.797 87.3097C224.085 86.2685 225.974 86.2546 227.145 87.4256L229.056 89.3363C230.227 90.5079 230.235 92.418 228.972 93.4913C227.988 94.3288 226.962 95.1121 225.9 95.8384Z" fill="#FBAB1A"/>
</g>
<defs>
<clipPath id="clip0_29_823">
<rect width="297" height="297" fill="white"/>
</clipPath>
</defs>
</svg>
